<svg xmlns="http://www.w3.org/2000/svg" viewBox="0 0 150 20"><path d="M63.663 6.722c-3.491 0-6.33 2.977-6.33 6.635 0 3.656 2.839 6.633 6.33 6.633s6.331-2.977 6.331-6.633c-.001-3.658-2.84-6.635-6.331-6.635zm0 12.393c-3.006 0-5.454-2.585-5.454-5.758 0-3.174 2.447-5.759 5.454-5.759 3.008 0 5.456 2.585 5.456 5.759 0 3.173-2.449 5.758-5.456 5.758zM53.6 1.979a.772.772 0 1 1-1.543 0 .772.772 0 0 1 1.543 0zM52.367 6.99h.875v13h-.875v-13zm-5.935 2.957c-1.062-1.924-2.99-3.217-5.195-3.217-3.347 0-6.07 2.975-6.07 6.632 0 3.656 2.724 6.629 6.07 6.629 2.205 0 4.133-1.29 5.195-3.216v3.216h.876V.072h-.876v9.875zm-5.195 9.168c-2.863 0-5.193-2.581-5.193-5.754 0-3.173 2.331-5.756 5.193-5.756 2.866 0 5.195 2.583 5.195 5.756s-2.329 5.754-5.195 5.754zM30.227 7.041h.877v12.95h-.877v-2.192a4.78 4.78 0 0 1-3.977 2.19c-.035.002-.07.002-.104.002-1.435 0-2.551-.452-3.413-1.378a5.027 5.027 0 0 1-1.348-3.38V7.041h.876v8.192a4.131 4.131 0 0 0 1.115 2.781c.712.771 1.617 1.123 2.862 1.102a3.924 3.924 0 0 0 3.367-1.975c.44-.764.519-1.122.623-1.938V7.041zM17.975 19.052c.225-.02.412-.033.526-.033v.874c-.099 0-.258.014-.45.031a13.41 13.41 0 0 1-1.168.066c-.371 0-.731-.031-1.016-.127-1.182-.37-1.527-1.054-1.803-1.602l-.022-.043c-.328-.789-.329-1.472-.33-2.327l-.001-.402V7.776h-2.406v-.787h2.406v-4.36h.876v4.36h3.862v.788h-3.862l.001 8.115c.002.789.002 1.362.25 1.961l.007.014c.255.502.455.9 1.293 1.166.427.143 1.309.065 1.837.019zm-8.982-3.948c.053.145.222.677.173 1.448-.025.431-.09.944-.37 1.448-.193.354-.493.81-1.067 1.162a4.967 4.967 0 0 1-2.364.771c-.305.021-.568.031-.798.031-.795 0-1.191-.117-1.697-.265l-.083-.021c-.809-.238-1.612-.805-2.096-1.491-.292-.413-.613-.923-.691-1.726l.87-.086c.058.59.278.941.537 1.306.37.524 1.007.977 1.627 1.154l.082.025c.607.178.971.284 2.19.201.913-.062 1.504-.361 1.964-.642.398-.247.609-.563.761-.841.157-.285.232-.6.262-1.08.039-.632-.105-1.048-.123-1.092-.062-.174-.138-.343-.413-.64-.166-.171-.565-.392-1.097-.599a14.464 14.464 0 0 0-1.988-.584l-.167-.039c-.73-.16-1.73-.376-2.346-.606-.66-.248-1.03-.497-1.367-.92-.311-.388-.454-.808-.51-1.491-.056-.665.003-1.031.276-1.695.272-.658.722-1.143 1.46-1.575.909-.532 2.056-.519 2.433-.516 1.169.011 1.961.14 2.852.79.86.629 1.368 1.543 1.464 2.645l-.873.074c-.075-.852-.448-1.529-1.11-2.012-.705-.516-1.311-.612-2.321-.62-.338-.005-1.303-.015-2.001.394-.578.339-.895.673-1.093 1.152-.222.542-.259.759-.212 1.292.045.571.153.804.321 1.019.201.256.419.431.988.646.556.206 1.521.417 2.226.564l.167.039c1.061.232 1.889.541 2.118.628.679.262 1.156.538 1.423.82.348.373.488.641.593.932z"></path><g><path stroke-width="3.718" d="M81.503 6.358V19.99"></path><path stroke-width="3.505" d="M81.592 11.518c0-1.876 1.811-3.399 4.043-3.399 2.209 0 4.005 1.492 4.042 3.343v5.037"></path><path stroke-width="3.505" d="M89.677 11.518c0-1.876 1.811-3.399 4.046-3.399 2.208 0 4.002 1.492 4.037 3.343l.002 8.539"></path><path class="motion-letter" stroke-width="3.68" d="M109.331 18.156a4.98 4.98 0 1 0 0-9.961 4.983 4.983 0 0 0-4.983 4.983" style="stroke-dasharray: 23.4773px; transform-origin: 109.2px 13.2px; stroke-dashoffset: 0px; transform: translate(0px, 0px) rotate(0deg) skew(0deg, 0deg) scale(1, 1);"></path><path stroke-width="3.154" d="M117.707 7.963h9.143"></path><path stroke-width="3.68" d="M121.911 2.323v11.68c.01 2.235.895 3.756 2.771 4.077.759.131 1.423.059 2.169.059"></path><path stroke-width="3.68" d="M131.301 6.386v6.799"></path><circle cx="131.313" cy="2.357" r="2.155"></circle><path stroke-width="3.68" d="M138.035 13.187a4.98 4.98 0 0 0 4.986 4.978A4.977 4.977 0 0 0 148 13.186c0-2.75-2.228-4.98-4.979-4.98"></path></g></svg>